Title: Embryo (1976)
Starring: Rock Hudson, Barbara Carrera, Diane Ladd, Roddy McDowall, Dr. Joyce Brothers.  Directed by Ralph Nelson.
IMdB code: http://www.imdb.com/title/tt0074475/
Summary: A scientist who works on rapid tissue regeneration in animals tries to save the unborn baby of a dying human mother.  He appears to carry out his goal successfully.  But has he saved a human life, or only created a different kind of animal?  A public domain film.  Brought to you by Colonel Boris.

Note: All rips of this originate from VHS tape.  Due to cropping on the source file, some adjustment to aspect ratio may be required for this file to view properly.

General
Format                           : AVI
Format/Info                      : Audio Video Interleave
Format profile                   : OpenDML
File size                        : 2.63 GiB
Duration                         : 1h 43mn
Overall bit rate                 : 3 641 Kbps
Writing application              : MEncoder SVN-r30881(20100311-gcc4.3.3)
Writing library                  : MPlayer

Video
ID                               : 0
Format                           : MPEG-4 Visual
Format profile                   : Advanced Simple@L5
Format settings, BVOP            : 2
Format settings, QPel            : No
Format settings, GMC             : No warppoints
Format settings, Matrix          : Default (H.263)
Codec ID                         : XVID
Codec ID/Hint                    : XviD
Duration                         : 1h 43mn
Bit rate                         : 3 501 Kbps
Width                            : 720 pixels
Height                           : 480 pixels
Display aspect ratio             : 4:3
Frame rate                       : 29.970 fps
Standard                         : NTSC
Color space                      : YUV
Chroma subsampling               : 4:2:0
Bit depth                        : 8 bits
Scan type                        : Progressive
Compression mode                 : Lossy
Bits/(Pixel*Frame)               : 0.338
Stream size                      : 2.53 GiB (96%)
Writing library                  : XviD 1.2.1 (UTC 2008-12-04)

Audio
ID                               : 1
Format                           : MPEG Audio
Format version                   : Version 1
Format profile                   : Layer 3
Mode                             : Joint stereo
Mode extension                   : MS Stereo
Codec ID                         : 55
Codec ID/Hint                    : MP3
Duration                         : 1h 43mn
Bit rate mode                    : Constant
Bit rate                         : 128 Kbps
Channel(s)                       : 2 channels
Sampling rate                    : 44.1 KHz
Compression mode                 : Lossy
Delay relative to video          : 33ms
Stream size                      : 94.8 MiB (4%)
Alignment                        : Aligned on interleaves
Interleave, duration             : 26 ms (0.78 video frame)
Interleave, preload duration     : 522 ms
